<svg xmlns="http://www.w3.org/2000/svg" data-name="Layer 1" viewBox="0 0 100 125" x="0px" y="0px"><path  d="M6.35,45l.2,13c0,.2,0,.68.06,1A7,7,0,0,0,6.84,60a7.14,7.14,0,0,0,.95,2,6.92,6.92,0,0,0,3.36,2.56,6.8,6.8,0,0,0,5.33-.35c-.24,3.28-.43,7.2-.57,11.51-.11,3.41-.2,7.07-.26,10.85l0,2.86v1.88l0,.53c0,.35.09.7.15,1a8.62,8.62,0,0,0,13.43,5.25,9.09,9.09,0,0,0,1.48-1.34l.1.11a7.9,7.9,0,0,0,7.66,2.15,8.29,8.29,0,0,0,4.09-2.48,8.46,8.46,0,0,0,2.11-4.65c.08-1,.06-1.46.08-2.11l0-1.87,0-3.77c0-7.24-.25-14.48-.73-19.84a6.82,6.82,0,0,0,5.2.24A6.94,6.94,0,0,0,52.59,62a7,7,0,0,0,.94-2,7.33,7.33,0,0,0,.23-1.1c0-.36.06-.8.05-1l.09-6.3a30.65,30.65,0,0,0,7.8,1.11c0,6.71.14,13.33.35,19.21l.09,2.45.06,1.26a6.68,6.68,0,0,0,.33,1.7A6.51,6.51,0,0,0,67,81.53a7.24,7.24,0,0,0,2.54.15l1.84-.15,2-.2,0,1.14.08,1.95a5.62,5.62,0,0,0,1,3A5.54,5.54,0,0,0,76.9,89.3a5.28,5.28,0,0,0,1.42.37,4.9,4.9,0,0,0,.71,0c.26,0,.31,0,.47,0l3.14-.24c2-.18,3.68-.38,5-.61.19,0,.34-.68.32-1.44s-.15-1.21-.32-1.24c-1.37-.23-3.08-.44-5-.61L79.5,85.3a3.2,3.2,0,0,1-.36,0l-.13,0a.83.83,0,0,1-.22-.12.94.94,0,0,1-.3-.37.82.82,0,0,1-.05-.44l.07-1.83.11-3.91,0-2,0-1a.33.33,0,0,1,0-.12s0,0,0,0a.5.5,0,0,1,0-.07.51.51,0,0,1,.46-.32c2.74,0,5.49,0,8.14-.08h.75l.17,0a.69.69,0,0,1,.32.2.64.64,0,0,1,.17.41l.08,1.83c.11,2.4.26,4.63.43,6.6l0,.35s0,.1,0,.15a1.38,1.38,0,0,1,0,.3,1.52,1.52,0,0,1-.18.58,1.86,1.86,0,0,1-.91.8A3.53,3.53,0,0,0,88,87.59c0,.7.21,1.24.47,1.25a4.55,4.55,0,0,0,3.11-1.21A4.84,4.84,0,0,0,92.77,86a4.94,4.94,0,0,0,.32-1.07c0-.19.05-.38.07-.57l0-.38c.17-2,.32-4.2.43-6.6l.08-1.83a5.75,5.75,0,0,0-.84-3.17,5.81,5.81,0,0,0-2.59-2.27,6.07,6.07,0,0,0-1.73-.46l-.45,0h-.79c-2.66-.06-5.4-.08-8.15-.08a5.9,5.9,0,0,0-5.87,5.19,4.2,4.2,0,0,0,0,.47c0,.15,0,.34,0,.39l0,1,0,1.83-1.93-.19-1.84-.15a3.59,3.59,0,0,1-1.38-.25,2.5,2.5,0,0,1-1.43-1.74,2.36,2.36,0,0,1,0-.58l0-1.11.09-2.45c.21-5.89.32-12.53.35-19.25a33.2,33.2,0,0,0,6.21-.84l0,.79.08,1.95a5.62,5.62,0,0,0,1,3,5.54,5.54,0,0,0,2.37,1.87,5.28,5.28,0,0,0,1.42.37,4.9,4.9,0,0,0,.71,0c.26,0,.31,0,.47,0l3.14-.24c2-.18,3.68-.38,5-.61.19,0,.34-.68.32-1.44s-.15-1.21-.32-1.24c-1.37-.23-3.08-.44-5-.61l-3.14-.24a3.22,3.22,0,0,1-.36,0l-.13,0a.83.83,0,0,1-.22-.12.94.94,0,0,1-.3-.37.82.82,0,0,1-.05-.44l.07-1.83.11-3.91,0-2,0-1a.33.33,0,0,1,0-.12s0,0,0,0a.49.49,0,0,1,.48-.39c2.74,0,5.49,0,8.14-.08h.75l.17,0a.69.69,0,0,1,.32.2.64.64,0,0,1,.17.41l.08,1.83c.11,2.4.26,4.63.43,6.6l0,.35s0,.1,0,.15a1.38,1.38,0,0,1,0,.3,1.52,1.52,0,0,1-.18.58,1.86,1.86,0,0,1-.91.8A3.53,3.53,0,0,0,88,57.72c0,.7.21,1.24.47,1.25a4.55,4.55,0,0,0,3.11-1.21,4.84,4.84,0,0,0,1.18-1.67A4.94,4.94,0,0,0,93.09,55c0-.19.05-.38.07-.57l0-.38c.17-2,.32-4.2.43-6.6l.08-1.83a5.75,5.75,0,0,0-.84-3.17,5.81,5.81,0,0,0-2.59-2.27,6.07,6.07,0,0,0-1.73-.46l-.45,0h-.79c-2.66-.06-5.4-.08-8.15-.08a5.9,5.9,0,0,0-5.87,5.19,4.2,4.2,0,0,0,0,.47c0,.15,0,.34,0,.39l0,1,0,1.47a33.69,33.69,0,0,0-6.11-.81c0-6.72-.13-13.35-.34-19.24l-.09-2.45,0-1.12a2.34,2.34,0,0,1,0-.58,2.46,2.46,0,0,1,1.41-1.73A3.48,3.48,0,0,1,69.53,22l1.84-.15,2-.19,0,1.11.08,1.95a5.62,5.62,0,0,0,1,3,5.54,5.54,0,0,0,2.37,1.87,5.28,5.28,0,0,0,1.42.37A4.9,4.9,0,0,0,79,30c.26,0,.31,0,.47,0l3.14-.24c2-.18,3.68-.38,5-.61.19,0,.34-.68.32-1.44s-.15-1.21-.32-1.24c-1.37-.23-3.08-.44-5-.61l-3.14-.24a3.2,3.2,0,0,1-.36,0l-.13,0a.83.83,0,0,1-.22-.12.94.94,0,0,1-.3-.37.82.82,0,0,1-.05-.44l.07-1.83.11-3.91,0-2,0-1a.33.33,0,0,1,0-.12s0,0,0,0a.5.5,0,0,1,0-.07.51.51,0,0,1,.46-.32c2.74,0,5.49,0,8.14-.08h.75l.17,0a.69.69,0,0,1,.32.2.64.64,0,0,1,.17.41l.08,1.83c.11,2.4.26,4.63.43,6.6l0,.35s0,.1,0,.15a1.38,1.38,0,0,1,0,.3,1.52,1.52,0,0,1-.18.58,1.86,1.86,0,0,1-.91.8A3.53,3.53,0,0,0,88,27.85c0,.7.21,1.24.47,1.25a4.55,4.55,0,0,0,3.11-1.21,4.84,4.84,0,0,0,1.18-1.67,4.94,4.94,0,0,0,.32-1.07c0-.19.05-.38.07-.57l0-.38c.17-2,.32-4.2.43-6.6l.08-1.83a5.75,5.75,0,0,0-.84-3.17,5.81,5.81,0,0,0-2.59-2.27,6.07,6.07,0,0,0-1.73-.46l-.45,0h-.79c-2.66-.06-5.4-.08-8.15-.08a5.9,5.9,0,0,0-5.87,5.19,4.2,4.2,0,0,0,0,.47c0,.15,0,.34,0,.39l0,1,0,1.8-1.94-.19-1.84-.15a7.19,7.19,0,0,0-2.55.16,6.53,6.53,0,0,0-4.47,4.23,6.7,6.7,0,0,0-.33,1.71l-.06,1.26L62,28.1c-.2,5.88-.31,12.49-.34,19.2a31,31,0,0,0-7.75,1.09L54,44.92l0-3.4c0-.58,0-1.12,0-1.75a19.48,19.48,0,0,0-.13-2,17.36,17.36,0,0,0-2.87-7.69,17.54,17.54,0,0,0-6.3-5.61,15.58,15.58,0,0,0-2-.88,15.21,15.21,0,0,0-2.08-.64c-.7-.19-1.43-.26-2.15-.38l-.33,0a11.93,11.93,0,0,0,1.13-1,12.61,12.61,0,1,0-18.31,0,11.73,11.73,0,0,0,1.12,1l-.39,0A21.16,21.16,0,0,0,19.6,23a14.88,14.88,0,0,0-2.08.64,15.93,15.93,0,0,0-2,.88A17.59,17.59,0,0,0,9.26,30.1a17.4,17.4,0,0,0-2.85,7.69c-.1.67-.08,1.35-.12,2v1.74Zm4.58,13,.2-13,0-3.4,0-1.7c.05-.48,0-1,.12-1.44a12.29,12.29,0,0,1,6.63-9.3,10.82,10.82,0,0,1,1.39-.59,9.83,9.83,0,0,1,1.46-.43c.49-.14,1-.16,1.5-.25l.77,0c.29,0,.34,0,1.21-.08a4.83,4.83,0,0,0,2-8.75L26,18.73a7.28,7.28,0,0,1-1-.91,7.11,7.11,0,0,1-1.93-5,7.2,7.2,0,0,1,2.14-5,7.26,7.26,0,0,1,10.07,0,7.25,7.25,0,0,1,.19,10,6.66,6.66,0,0,1-1,.91l-.32.23A4.84,4.84,0,0,0,36,27.72a4,4,0,0,0,.52.05h.36l.38,0,.77,0c.5.09,1,.11,1.5.25a10.1,10.1,0,0,1,1.45.42,10.48,10.48,0,0,1,1.39.59A12.27,12.27,0,0,1,49,38.37c.1.47.07,1,.12,1.44s0,1.14,0,1.7l0,3.4.19,13c0,.31,0,.38,0,.54a3,3,0,0,1-.07.41,2.61,2.61,0,0,1-1.56,1.82,2.79,2.79,0,0,1-3.78-2,2.23,2.23,0,0,1-.06-.4c0-.11,0-.41,0-.6l0-1.3-.15-5-.32-8.61a1.35,1.35,0,0,0-1.47-1.24h0a1.34,1.34,0,0,0-1.28,1.24l-.32,8.61-.15,5,0,1.3c0,.24,0,.38,0,.72a5.9,5.9,0,0,0,.07.93,6.55,6.55,0,0,0,.26,1.06c-.79,5.34-1.19,14.59-1.2,23.86l0,3.77,0,3.44a3.54,3.54,0,0,1-2.25,3A3.94,3.94,0,0,1,33.44,94a4.32,4.32,0,0,1-.88-.8A8.4,8.4,0,0,0,32.82,91c-.06-3.78-.15-7.44-.27-10.85-.24-6.82-.59-12.67-1.05-16.55,0-.27-.68-.48-1.44-.46h0c-.68,0-1.21.22-1.24.46-.47,3.88-.82,9.73-1.05,16.55-.12,3.41-.21,7.07-.27,10.85a3.29,3.29,0,0,1-1.43,2.68,3.23,3.23,0,0,1-5-1.94c0-.13,0-.26-.06-.39V89.44l0-2.86c-.06-3.78-.14-7.44-.26-10.85-.21-6.16-.51-11.5-.91-15.35a6.34,6.34,0,0,0,.29-1.17,6.17,6.17,0,0,0,.07-.92c0-.31,0-.46,0-.7l0-1.3-.15-5-.33-8.61a1.31,1.31,0,0,0-1.44-1.21A1.3,1.3,0,0,0,17,42.73l-.33,8.61-.15,5,0,1.3c0,.2,0,.48,0,.62a2.48,2.48,0,0,1-.06.4,2.82,2.82,0,0,1-3.8,2.07,2.73,2.73,0,0,1-1.26-1.06,2.87,2.87,0,0,1-.32-.77,2.71,2.71,0,0,1-.07-.41C10.93,58.28,10.92,58.24,10.93,57.92Z"/></svg>