<svg xmlns="http://www.w3.org/2000/svg" width="20.603" height="20.594" viewBox="0 0 20.603 20.594">
  <g id="_392530_add_create_cross_new_plus_icon" data-name="392530_add_create_cross_new_plus_icon" transform="translate(-1.988 -2)">
    <g id="Group_341" data-name="Group 341" transform="translate(1.988 2)">
      <path id="Path_630" data-name="Path 630" d="M12.294,22.594A10.3,10.3,0,0,1,3.135,7.586a.736.736,0,0,1,1.308.673,8.841,8.841,0,1,0,1.61-2.2.735.735,0,1,1-1.04-1.04A10.3,10.3,0,1,1,19.574,19.578,10.225,10.225,0,0,1,12.294,22.594Z" transform="translate(-1.988 -2)" fill="#9491f8"/>
    </g>
    <g id="Group_342" data-name="Group 342" transform="translate(11.558 7.884)">
      <path id="Path_631" data-name="Path 631" d="M15.735,18.826A.735.735,0,0,1,15,18.09V10.735a.735.735,0,1,1,1.471,0V18.09A.735.735,0,0,1,15.735,18.826Z" transform="translate(-15 -10)" fill="#9491f8"/>
    </g>
    <g id="Group_343" data-name="Group 343" transform="translate(7.881 11.561)">
      <path id="Path_632" data-name="Path 632" d="M18.09,16.471H10.735a.735.735,0,1,1,0-1.471H18.09a.735.735,0,1,1,0,1.471Z" transform="translate(-10 -15)" fill="#9491f8"/>
    </g>
  </g>
</svg>
