<svg xmlns="http://www.w3.org/2000/svg" width="7.495" height="6" viewBox="0 0 7.495 6">
  <g id="_x35_96_x2C__Admin_x2C__console_x2C__panel_x2C__root_x2C__software_x2C_" transform="translate(-26.002 -71.879)">
    <g id="Group_334" data-name="Group 334" transform="translate(26.002 71.879)">
      <path id="Path_603" data-name="Path 603" d="M26.088,76.993H33.5v.886H26.088Zm1.995-.117V74.922h0V74.51h0v-.413h0v-.411h0v-.411h0v-.413h0v-.374H33.5v4.4Zm-1.481.633a.1.1,0,0,1-.146-.146.1.1,0,0,1,.146.146Zm-.073.147a.22.22,0,1,0-.156-.064A.221.221,0,0,0,26.529,77.657Zm.589-.147a.1.1,0,1,1,.03-.073A.1.1,0,0,1,27.118,77.509Zm-.073.147a.22.22,0,1,0-.156-.064A.221.221,0,0,0,27.044,77.657Zm.589-.147a.1.1,0,1,1,.03-.073A.1.1,0,0,1,27.634,77.509Zm-.073.147a.22.22,0,1,0-.156-.064A.221.221,0,0,0,27.561,77.657Zm.4-4.862h-.939a.059.059,0,0,0,0,.117h.939v.3h-.939a.058.058,0,1,0,0,.117h.939v.3h-.939a.059.059,0,0,0,0,.117h.939v.3h-.939a.058.058,0,1,0,0,.117h.939v.3h-.939a.059.059,0,0,0,0,.117h.939v.3h-.939a.059.059,0,0,0,0,.117h.939v.3h-.939a.059.059,0,0,0,0,.117h.939v.3h-.939a.059.059,0,0,0,0,.117h.939v.3h-.939a.059.059,0,0,0,0,.117h.939v.3h-.939a.059.059,0,0,0,0,.117h.939v.239H26.088v-.239h.342a.059.059,0,0,0,0-.117h-.342v-.3h.342a.059.059,0,0,0,0-.117h-.342v-.3h.342a.059.059,0,0,0,0-.117h-.342v-.3h.342a.059.059,0,0,0,0-.117h-.342v-.3h.342a.059.059,0,0,0,0-.117h-.342v-.3h.342a.059.059,0,0,0,0-.117h-.342v-.3h.342a.058.058,0,1,0,0-.117h-.342v-.3h.342a.059.059,0,0,0,0-.117h-.342v-.3h.342a.058.058,0,1,0,0-.117h-.342v-.3h.342a.059.059,0,0,0,0-.117h-.342v-.317h1.877v.317Zm5.129,3.732H28.545v-.459h4.549Zm-4.608.117h4.666a.059.059,0,0,0,.059-.059v-.577a.059.059,0,0,0-.059-.059H28.487a.059.059,0,0,0-.059.059v.577A.059.059,0,0,0,28.487,76.643Zm2.9-2.265h-2.9a.059.059,0,0,0-.059.058v1.217a.059.059,0,0,0,.059.059h2.9a.059.059,0,0,0,.059-.059V74.436A.059.059,0,0,0,31.391,74.378Zm-2.846.117h2.787v1.1H28.545Zm-.058-.475a.059.059,0,0,0,0,.117h2.2a.059.059,0,0,0,0-.117ZM29.2,73.8a.059.059,0,0,0,0,.117h3.669a.059.059,0,0,0,0-.117Zm-.709-.3a.059.059,0,0,0,0,.117h2.2a.059.059,0,0,0,0-.117Zm.709-.219a.059.059,0,0,0,0,.117h3.669a.059.059,0,0,0,0-.117Zm-.709-.3a.059.059,0,0,0,0,.117h2.2a.059.059,0,0,0,0-.117Zm-1.693-.929a.059.059,0,1,0,0,.117h4.281a.059.059,0,0,0,0-.117Zm2.282-.184a.059.059,0,1,0,0,.117h3.338a.059.059,0,1,0,0-.117Zm3.679,0a.059.059,0,0,0,0,.117h.418a.059.059,0,0,0,0-.117Zm-6.694.006a.059.059,0,0,0,0,.117h1.582a.059.059,0,0,0,0-.117Zm3.134.888a.059.059,0,0,0,0,.117h3.669a.059.059,0,0,0,0-.117Z" transform="translate(-26.002 -71.879)" fill="#fff" fill-rule="evenodd"/>
    </g>
  </g>
</svg>
