<svg width="83" height="102" viewBox="0 0 83 102" fill="none" xmlns="http://www.w3.org/2000/svg">
<path fill-rule="evenodd" clip-rule="evenodd" d="M47.8079 16.0095C47.8079 14.2031 49.2556 12.7576 50.9711 12.7576C52.78 12.7576 54.2245 14.2029 54.2245 16.0095C54.2245 17.7257 52.78 19.1711 50.9711 19.1711C49.2554 19.1711 47.8079 17.7257 47.8079 16.0095V16.0095ZM12.7434 60.538V38.2295C12.7434 34.7972 9.85096 31.9079 6.41683 31.9079C2.89246 31.9079 0 34.7972 0 38.2295V60.538C0 64.0608 2.89265 66.9515 6.41683 66.9515C9.85116 66.9515 12.7434 64.0608 12.7434 60.538ZM66.9681 31.9079H15.9068V73.2749C15.9068 76.617 18.6172 79.3273 21.9609 79.3273H22.3236V95.5866C22.3236 99.1091 25.2145 102 28.7391 102C32.1748 102 35.0657 99.1089 35.0657 95.5866V79.3273H47.8077V95.5866C47.8077 99.1091 50.7002 102 54.2243 102C57.6587 102 60.5511 99.1089 60.5511 95.5866V79.3273H61.0027C64.2562 79.3273 66.9681 76.6172 66.9681 73.2749V31.9079V31.9079ZM70.1313 38.2295V60.538C70.1313 64.0608 73.0238 66.9515 76.5484 66.9515C79.9825 66.9515 82.875 64.0606 82.875 60.538V38.2295C82.875 34.7972 79.9825 31.9079 76.5484 31.9079C73.0238 31.9079 70.1313 34.7972 70.1313 38.2295V38.2295ZM35.0657 16.0095C35.0657 17.7257 33.6195 19.1711 31.9023 19.1711C30.095 19.1711 28.7391 17.7257 28.7391 16.0095C28.7391 14.2031 30.095 12.7576 31.9023 12.7576C33.6195 12.7578 35.0657 14.2031 35.0657 16.0095ZM15.9068 28.7463H66.9681C66.9681 20.2556 62.8117 12.6676 56.3946 8.06203L61.7249 2.73154C62.36 2.09981 62.36 1.10551 61.7249 0.473792C61.0928 -0.157931 60.0999 -0.157931 59.4678 0.473792L53.5926 6.34596C49.9778 4.35756 45.8213 3.18436 41.4811 3.18436C37.0537 3.18436 32.8974 4.35756 29.2826 6.34596L23.4072 0.473792C22.8655 -0.157931 21.7804 -0.157931 21.2387 0.473792C20.6068 1.10551 20.6068 2.09981 21.2387 2.73154L26.4803 8.06203C20.1536 12.6676 15.9068 20.2556 15.9068 28.7463V28.7463Z" fill="white"/>
</svg>
