<?xml version="1.0" standalone="no"?>
<svg viewBox="0 0 200 200" xmlns="http://www.w3.org/2000/svg">
  <path fill="#20234C" d="M50.6,-65.6C63.1,-60.6,69.1,-42.5,71.4,-25.5C73.8,-8.6,72.5,7.3,65.1,18.5C57.8,29.6,44.4,36.1,32.5,43.2C20.7,50.3,10.3,57.9,-3.8,63.2C-18,68.5,-36,71.4,-51.6,65.5C-67.3,59.7,-80.7,45.1,-80.3,29.9C-80,14.7,-65.9,-1.1,-56.9,-15.3C-47.8,-29.5,-43.8,-42.1,-35.1,-48.4C-26.5,-54.7,-13.2,-54.7,2.9,-58.7C19.1,-62.7,38.1,-70.7,50.6,-65.6Z" transform="translate(100 100)" />
</svg>