<svg xmlns="http://www.w3.org/2000/svg" width="18.611" height="20.043" viewBox="0 0 18.611 20.043" fill="#9491f8">
  <path id="_1608490_calendar_o_plus_icon" data-name="1608490_calendar_o_plus_icon" d="M17.18,2.863a1.376,1.376,0,0,1,1.007.425,1.376,1.376,0,0,1,.425,1.007V18.611a1.452,1.452,0,0,1-1.432,1.432H1.432a1.376,1.376,0,0,1-1.007-.425A1.376,1.376,0,0,1,0,18.611V4.295A1.376,1.376,0,0,1,.425,3.288a1.376,1.376,0,0,1,1.007-.425H2.863V1.79A1.723,1.723,0,0,1,3.389.526,1.723,1.723,0,0,1,4.653,0h.716A1.723,1.723,0,0,1,6.633.526,1.723,1.723,0,0,1,7.158,1.79V2.863h4.295V1.79A1.723,1.723,0,0,1,11.979.526,1.723,1.723,0,0,1,13.243,0h.716a1.723,1.723,0,0,1,1.264.526,1.723,1.723,0,0,1,.526,1.264V2.863ZM12.885,1.79V5.011a.345.345,0,0,0,.358.358h.716a.345.345,0,0,0,.358-.358V1.79a.345.345,0,0,0-.358-.358h-.716a.345.345,0,0,0-.358.358Zm-8.59,0V5.011a.345.345,0,0,0,.358.358h.716a.345.345,0,0,0,.358-.358V1.79a.345.345,0,0,0-.358-.358H4.653a.345.345,0,0,0-.358.358ZM17.18,18.611V7.158H1.432V18.611Zm-7.158-6.442h2.505a.345.345,0,0,1,.358.358v.716a.345.345,0,0,1-.358.358H10.021v2.505a.345.345,0,0,1-.358.358H8.948a.345.345,0,0,1-.358-.358V13.6H6.084a.345.345,0,0,1-.358-.358v-.716a.345.345,0,0,1,.358-.358H8.59V9.664a.345.345,0,0,1,.358-.358h.716a.345.345,0,0,1,.358.358Z" />
</svg>
