<svg width="12" height="11" xmlns="http://www.w3.org/2000/svg" xmlns:xlink="http://www.w3.org/1999/xlink" xmlns:svgjs="http://svgjs.com/svgjs" fill="#35ba67"><svg xmlns="http://www.w3.org/2000/svg" width="12" height="11" viewBox="0.666 0.5 10.546 9.667"><path paint-order="stroke fill markers" fill-rule="evenodd" d="M9.405 4.739c.03.194.05.392.05.594A3.96 3.96 0 0 1 5.5 9.288a3.96 3.96 0 0 1-3.955-3.955A3.96 3.96 0 0 1 5.5 1.38c.866 0 1.665.283 2.317.757.23-.197.462-.388.703-.573A4.811 4.811 0 0 0 5.5.5a4.834 4.834 0 1 0 4.599 3.35c-.232.277-.463.572-.694.889zm-6.33-.245l.696-.643c.814.393 1.33.693 2.245 1.345 1.72-1.952 2.857-2.942 4.97-4.257l.226.521C9.47 2.981 8.193 4.674 6.356 7.97c-1.133-1.335-1.89-2.186-3.282-3.476z"/></svg></svg>