<svg xmlns="http://www.w3.org/2000/svg" width="15.001" height="15" viewBox="0 0 15.001 15">
  <g id="_8209134_user_interface_cross_wrong_ui_icon" data-name="8209134_user_interface_cross_wrong_ui_icon" transform="translate(0 0)">
    <path id="Path_640" data-name="Path 640" d="M152.824,148.812l-3.431,3.431-3.431-3.431a.433.433,0,1,0-.611.611l3.431,3.432-3.24,3.24a.433.433,0,0,0,.611.611l3.24-3.238,3.24,3.24a.433.433,0,0,0,.611-.611L150,152.855l3.434-3.431a.433.433,0,1,0-.611-.611Z" transform="translate(-141.931 -145.229)" fill="#fff"/>
    <path id="Path_641" data-name="Path 641" d="M66.94,58.65a7.5,7.5,0,1,0,7.5,7.5A7.509,7.509,0,0,0,66.94,58.65Zm0,14.135a6.635,6.635,0,1,1,6.635-6.635A6.642,6.642,0,0,1,66.94,72.785Z" transform="translate(-59.44 -58.65)" fill="#fff"/>
  </g>
</svg>
