<?xml version="1.0" ?><svg data-name="Layer 1" id="Layer_1" viewBox="0 0 512 512" xmlns="http://www.w3.org/2000/svg"><path d="M435.08,358.22c-15.82,0-28.25,8.56-34.08,23.49-6.34,16.21-3,35.29,7.93,45.38,9.22,8.49,22.8,10,33,3.58,9.31-5.8,13-16.32,9.72-27.48a6,6,0,0,0-11.56,3.46c1.75,5.87.09,10.9-4.54,13.79a15.42,15.42,0,0,1-18.47-2.21c-7.18-6.63-9.33-20.75-4.87-32.14,2.31-5.89,8.34-15.8,22.84-15.8,23,0,37.88,16.82,37.88,42.85v2.26a45.41,45.41,0,1,1-90.81,0V45.16a6,6,0,0,0-6-6H33a6,6,0,0,0-6,6V415.4a57.53,57.53,0,0,0,57.48,57.47H427.55A57.53,57.53,0,0,0,485,415.4v-2.26C485,380.81,464.49,358.22,435.08,358.22ZM84.46,460.81A45.47,45.47,0,0,1,39,415.4V51.19h331V415.4a57.4,57.4,0,0,0,22.28,45.41Z"/><path d="M318.12,133.54H90.43a6,6,0,0,0,0,12.06H318.12a6,6,0,1,0,0-12.06Z"/><path d="M318.12,196.54H90.43a6,6,0,0,0,0,12.07H318.12a6,6,0,1,0,0-12.07Z"/><path d="M318.12,259.55H90.43a6,6,0,0,0,0,12.06H318.12a6,6,0,1,0,0-12.06Z"/><path d="M318.12,322.57H90.43a6,6,0,1,0,0,12.06H318.12a6,6,0,1,0,0-12.06Z"/><path d="M264,385.57H90.43a6,6,0,0,0,0,12.06H264a6,6,0,0,0,0-12.06Z"/></svg>