<svg width="747" height="748" viewBox="0 0 747 748" fill="#FFF" xmlns="http://www.w3.org/2000/svg">
<path d="M736.067 638.294H720.026V299.227C720.01 288.597 715.781 278.404 708.26 270.888C700.745 263.367 690.552 259.138 679.921 259.123H501.108C499.738 207.773 488.754 159.956 468.368 117.043C448.201 74.5159 418.784 36.3653 380.868 3.65727C376.764 0.110337 370.681 0.110337 366.576 3.65727C328.659 36.3653 299.185 74.5173 279.076 117.043C258.66 160.021 247.707 207.783 246.336 259.123H67.4161C56.7858 259.138 46.5934 263.367 39.0774 270.888C31.5566 278.404 27.3274 288.596 27.3118 299.227V638.294H11.2705C5.22888 638.294 0.333008 643.189 0.333008 649.231V707.564C0.348633 718.195 4.57781 728.387 12.0986 735.903C19.6142 743.424 29.8066 747.653 40.4373 747.669H706.891C717.521 747.653 727.713 743.424 735.229 735.903C742.75 728.387 746.979 718.195 746.995 707.564V649.231C746.995 646.33 745.844 643.549 743.792 641.497C741.74 639.445 738.958 638.294 736.057 638.294H736.067ZM698.15 299.227V638.294H673.488C660.363 600.043 626.458 574.012 588.28 574.012C580.333 574.002 572.431 575.122 564.802 577.335C554.531 568.523 541.452 563.674 527.922 563.658C521.25 563.647 514.63 564.84 508.38 567.168C485.886 557.189 460.615 555.366 436.922 562.022C431.5 563.554 425.677 562.429 421.214 558.991C416.516 555.465 413.755 549.929 413.776 544.054V510.819H414.682C419.761 510.819 424.177 507.324 425.339 502.376L437.005 452.486H443.485C447.453 452.491 451.115 450.34 453.047 446.871C460.526 433.382 467.047 420.402 472.662 407.683L561.49 421.99C562.063 422.079 562.646 422.125 563.224 422.125C566.125 422.125 568.906 420.969 570.959 418.922C573.011 416.87 574.162 414.089 574.162 411.188V374.828C574.162 349.932 557.844 327.973 533.563 320.14L499.308 309.114C500.272 299.958 500.855 290.609 501.1 280.999H679.927C689.989 281.015 698.14 289.166 698.156 299.229L698.15 299.227ZM97.3497 638.294C108.87 612.758 132.683 595.887 159.068 595.887H159.063C166.704 595.887 174.282 597.278 181.423 599.996C185.569 601.569 190.256 600.491 193.293 597.257C199.991 589.887 209.465 585.658 219.424 585.59C224.627 585.59 229.757 586.772 234.434 589.043C237.476 590.548 241.044 590.548 244.085 589.043C262.793 579.632 284.345 577.548 304.507 583.21C316.517 586.621 329.433 584.158 339.345 576.564C349.496 568.902 355.439 556.902 355.387 544.189V510.82H391.845V544.055C391.783 556.773 397.731 568.773 407.887 576.429C417.798 584.028 430.715 586.492 442.725 583.08C462.887 577.419 484.439 579.497 503.141 588.914C506.188 590.408 509.751 590.408 512.798 588.914C517.475 586.643 522.605 585.461 527.803 585.461C537.761 585.528 547.235 589.757 553.939 597.127C556.975 600.356 561.663 601.44 565.809 599.867C572.949 597.148 580.522 595.752 588.163 595.752C614.543 595.752 638.361 612.627 649.882 638.159L97.3497 638.294ZM440.75 660.168L431.578 673.918C428.198 679.001 422.5 682.053 416.395 682.043H330.936C324.838 682.048 319.145 679.001 315.77 673.918L306.582 660.168H440.75ZM437.047 430.608H310.317C306.312 423.192 302.614 415.9 299.218 408.734H448.125C444.729 415.937 441.031 423.228 437.026 430.608H437.047ZM414.573 452.483L406.026 488.942H341.324L332.777 452.483H414.573ZM481.161 386.858C487.911 368.77 492.984 350.098 496.312 331.076L526.937 340.936C534.224 343.149 540.609 347.628 545.183 353.712C549.756 359.8 552.271 367.185 552.37 374.8V398.321L481.161 386.858ZM373.667 26.5375C394.031 44.8922 412.031 65.7042 427.26 88.5015H320.072C335.301 65.7042 353.301 44.8922 373.665 26.5375H373.667ZM306.833 110.376H440.5C466.344 157.439 479.396 210.84 479.396 270.136C479.396 312.355 472.849 348.724 457.667 386.803H289.667C274.484 348.667 267.937 312.298 267.937 270.136C267.937 210.839 280.989 157.439 306.833 110.376V110.376ZM266.188 386.896L195.021 398.36V374.833C195.12 367.224 197.636 359.838 202.209 353.75C206.782 347.662 213.172 343.188 220.454 340.974L251.079 331.115C254.397 350.131 259.454 368.803 266.189 386.896L266.188 386.896ZM49.1879 299.235C49.2036 289.172 57.3546 281.022 67.4173 281.006H246.204C246.454 290.615 247.037 299.964 247.996 309.12L213.741 320.146C189.46 327.98 173.142 349.938 173.142 374.834V411.194C173.142 417.231 178.038 422.132 184.08 422.132C184.663 422.132 185.241 422.085 185.814 421.996L274.642 407.69C280.257 420.408 286.778 433.387 294.257 446.878C296.189 450.346 299.851 452.497 303.825 452.492H310.299L321.965 502.383C323.127 507.331 327.543 510.825 332.627 510.825H333.533V544.06H333.528C333.549 549.935 330.793 555.472 326.09 558.997C321.632 562.435 315.809 563.56 310.388 562.029C286.694 555.372 261.424 557.195 238.929 567.175C232.679 564.846 226.059 563.654 219.388 563.664C205.857 563.68 192.773 568.529 182.508 577.341C174.877 575.128 166.972 574.008 159.029 574.019C120.852 574.019 86.8837 600.049 73.821 638.3H49.185L49.1879 299.235ZM725.121 707.568C725.106 717.631 716.955 725.782 706.892 725.798H40.4386C30.3761 725.782 22.2253 717.631 22.2093 707.568V660.172H280.329L297.58 686.058C305.007 697.224 317.528 703.927 330.935 703.922H416.393C429.805 703.932 442.331 697.224 449.757 686.058L466.997 660.172H725.117L725.121 707.568Z" />
<path d="M319.534 324.2C333.894 338.56 353.367 346.627 373.674 346.627C393.98 346.627 413.455 338.564 427.814 324.205C442.174 309.845 450.24 290.372 450.24 270.065C450.24 249.759 442.172 230.284 427.814 215.925C413.454 201.565 393.98 193.504 373.674 193.504C353.367 193.504 333.892 201.572 319.534 215.931C305.112 230.253 297.003 249.737 297.003 270.067C297.003 290.396 305.112 309.879 319.534 324.203V324.2ZM334.992 231.419C345.247 221.153 359.159 215.383 373.664 215.377C388.175 215.372 402.091 221.132 412.352 231.388C422.613 241.643 428.379 255.555 428.379 270.065C428.379 284.576 422.613 298.487 412.352 308.743C402.092 318.998 388.175 324.759 373.664 324.753C359.159 324.748 345.248 318.977 334.992 308.712C324.716 298.477 318.935 284.572 318.935 270.067C318.935 255.561 324.716 241.655 334.992 231.421V231.419Z" />
<path d="M359.081 293.96C361.133 296.012 363.914 297.168 366.815 297.168C369.721 297.168 372.503 296.012 374.555 293.96L406.888 261.626L406.883 261.632C411.034 257.34 410.977 250.517 406.758 246.298C402.544 242.074 395.721 242.012 391.425 246.158L366.841 270.788L355.872 259.82C353.83 257.71 351.033 256.512 348.096 256.486C345.163 256.46 342.346 257.616 340.273 259.694C338.195 261.767 337.044 264.59 337.07 267.523C337.096 270.46 338.304 273.257 340.413 275.293L359.081 293.96Z" />
</svg>
