<svg xmlns="http://www.w3.org/2000/svg" width="14.286" height="10" viewBox="0 0 14.286 10" fill="#8a9aff">
  <path id="_8673901_ic_fluent_text_description_filled_icon" data-name="8673901_ic_fluent_text_description_filled_icon" d="M2.714,13.571h8.571A.714.714,0,0,1,11.369,15l-.083,0H2.714a.714.714,0,0,1-.083-1.424l.083,0h0Zm0-2.857H15.571a.714.714,0,0,1,.083,1.424l-.083,0H2.714a.714.714,0,0,1-.083-1.424l.083,0h0Zm0-2.857H15.571a.714.714,0,0,1,.083,1.424l-.083,0H2.714a.714.714,0,0,1-.083-1.424l.083,0h0ZM2.714,5H15.571a.714.714,0,0,1,.083,1.424l-.083,0H2.714A.714.714,0,0,1,2.631,5l.083,0h0Z" transform="translate(-2 -5)" />
</svg>
