<svg width="114" height="114" viewBox="0 0 114 114" fill="none" xmlns="http://www.w3.org/2000/svg">
<path d="M57.0002 53.4375C52.276 53.4375 47.7453 55.3142 44.4048 58.6547C41.0643 61.9952 39.1877 66.5258 39.1877 71.25C39.1742 74.3786 39.9983 77.4537 41.5745 80.1562L46.9539 74.8125C46.5183 73.6758 46.3007 72.4672 46.3127 71.25C46.3127 69.1362 46.9395 67.0699 48.1138 65.3123C49.2882 63.5548 50.9573 62.1849 52.9102 61.376C54.8631 60.5671 57.012 60.3555 59.0852 60.7679C61.1584 61.1802 63.0627 62.1981 64.5574 63.6928C66.052 65.1875 67.0699 67.0918 67.4823 69.165C67.8947 71.2381 67.683 73.387 66.8741 75.3399C66.0652 77.2928 64.6954 78.962 62.9378 80.1363C61.1803 81.3107 59.114 81.9375 57.0002 81.9375V74.8125L46.3127 85.5L57.0002 96.1875V89.0625C61.7243 89.0625 66.255 87.1858 69.5955 83.8453C72.936 80.5048 74.8127 75.9742 74.8127 71.25C74.8127 66.5258 72.936 61.9952 69.5955 58.6547C66.255 55.3142 61.7243 53.4375 57.0002 53.4375Z" fill="white"/>
<path d="M99.3581 49.376C98.415 44.5026 95.8052 40.1094 91.9765 36.9502C88.1477 33.791 83.3389 32.0629 78.375 32.0623V32.0623C77.2783 32.0745 76.1835 32.1578 75.0975 32.3117C72.2092 28.3238 68.2751 25.2116 63.7294 23.3187C59.1838 21.4259 54.2035 20.8259 49.3384 21.5852C44.4733 22.3444 39.9126 24.4333 36.1599 27.6212C32.4072 30.8091 29.6084 34.9721 28.0725 39.6504C24.2631 40.5917 20.8711 42.7645 18.4233 45.8314C15.9755 48.8983 14.6089 52.6877 14.5358 56.611C14.4627 60.5343 15.6872 64.372 18.019 67.528C20.3508 70.684 23.6596 72.9816 27.4313 74.0642C27.9783 74.2369 28.559 74.2749 29.1239 74.1751C29.6888 74.0752 30.2213 73.8404 30.676 73.4907C31.1307 73.1409 31.4942 72.6865 31.7356 72.1661C31.977 71.6457 32.0892 71.0747 32.0625 70.5017V70.5017C32.0844 69.683 31.8236 68.8818 31.324 68.233C30.8244 67.5841 30.1164 67.1272 29.3194 66.9392C27.4342 66.4427 25.7207 65.4401 24.3643 64.0398C23.008 62.6395 22.0605 60.8949 21.6244 58.9948C21.2911 57.4898 21.2873 55.9306 21.6132 54.4241C21.9391 52.9175 22.587 51.4993 23.5125 50.2667C24.4447 49.1118 25.6072 48.1638 26.9259 47.483C28.2446 46.8022 29.6906 46.4035 31.1719 46.3123C31.8905 46.294 32.5832 46.04 33.1432 45.5894C33.7032 45.1388 34.0996 44.5166 34.2713 43.8185C35.124 39.9692 37.1161 36.4658 39.9882 33.7647C42.8603 31.0637 46.4792 29.2901 50.3736 28.675C54.268 28.0599 58.2574 28.6318 61.8221 30.3162C65.3869 32.0005 68.3618 34.7194 70.3594 38.1185C70.7661 38.7847 71.3802 39.2989 72.1075 39.5821C72.8348 39.8653 73.635 39.9018 74.385 39.686C75.6828 39.3221 77.0276 39.154 78.375 39.1873C81.6546 39.1798 84.8364 40.3039 87.3836 42.3697C89.9307 44.4355 91.6874 47.3168 92.3571 50.5273C93.0268 53.7378 92.5686 57.081 91.0599 59.9929C89.5511 62.9049 87.0841 65.2073 84.075 66.5117C83.4621 66.7953 82.9425 67.2473 82.5766 67.8149C82.2108 68.3826 82.0139 69.0426 82.0088 69.7179V69.7179C82.004 70.3151 82.1495 70.9039 82.4318 71.4302C82.7142 71.9565 83.1243 72.4034 83.6244 72.7297C84.1246 73.0561 84.6988 73.2514 85.2942 73.2979C85.8896 73.3443 86.4872 73.2403 87.0319 72.9954C90.0807 71.6637 92.7766 69.6388 94.905 67.0817C96.9086 64.6423 98.3471 61.7895 99.117 58.7282C99.887 55.6669 99.9693 52.473 99.3581 49.376V49.376Z" fill="white"/>
</svg>
