<svg xmlns="http://www.w3.org/2000/svg" width="46.536" height="46.536" viewBox="0 0 46.536 46.536">
  <g id="_658010_danger_error_exclamation_mark_warning_icon" data-name="658010_danger_error_exclamation mark_warning_icon" transform="translate(-12 -12)">
    <path id="Path_669" data-name="Path 669" d="M35.268,12A23.268,23.268,0,1,0,58.536,35.268,23.279,23.279,0,0,0,35.268,12Zm0,44.746A21.478,21.478,0,1,1,56.746,35.268,21.484,21.484,0,0,1,35.268,56.746Z" fill="#625df5"/>
    <path id="Path_670" data-name="Path 670" d="M57.812,50.8a.43.43,0,0,1-.4-.268c-.179-.4-4.609-10.157-4.609-18.122a5.012,5.012,0,1,1,10.023,0c0,7.965-4.43,17.72-4.609,18.122A.43.43,0,0,1,57.812,50.8Zm0-22.463a4.106,4.106,0,0,0-4.117,4.117c0,6.354,3,14.14,4.117,16.78,1.119-2.64,4.117-10.426,4.117-16.78A4.106,4.106,0,0,0,57.812,28.34Z" transform="translate(-22.544 -8.509)" fill="#625df5"/>
    <path id="Path_671" data-name="Path 671" d="M59.524,91.549a3.624,3.624,0,1,1,3.624-3.624A3.638,3.638,0,0,1,59.524,91.549Zm0-6.309a2.73,2.73,0,1,0,2.73,2.73A2.74,2.74,0,0,0,59.524,85.24Z" transform="translate(-24.256 -39.948)" fill="#625df5"/>
  </g>
</svg>
