<svg xmlns="http://www.w3.org/2000/svg" width="28.923" height="16" viewBox="0 0 28.923 16"  fill="#9491f8">
  <g id="_3556095_add_list_plus_ui_icon" data-name="3556095_add_list_plus_ui_icon" transform="translate(-3 -24)">
    <path id="Path_621" data-name="Path 621" d="M75,34.24H73.229V32.47a.615.615,0,0,0-1.231,0V34.24H70.229a.615.615,0,1,0,0,1.231H72V37.24a.615.615,0,0,0,1.231,0V35.47H75a.615.615,0,1,0,0-1.231Z" transform="translate(-46.117 -5.438)"/>
    <path id="Path_622" data-name="Path 622" d="M4.864,27.722A1.861,1.861,0,1,0,3,25.861,1.865,1.865,0,0,0,4.864,27.722Zm0-2.491a.63.63,0,1,1-.633.63A.632.632,0,0,1,4.864,25.231Z"/>
    <path id="Path_623" data-name="Path 623" d="M43.063,25.246H41.7a5.405,5.405,0,0,0-6.9,0H20.6a.615.615,0,1,0,0,1.231H33.708a5.369,5.369,0,0,0-.5,4.908H20.6a.615.615,0,1,0,0,1.231H33.89A5.41,5.41,0,0,0,42.8,26.477h.268a.616.616,0,0,0,0-1.231ZM38.252,33.6a4.186,4.186,0,1,1,4.186-4.187A4.191,4.191,0,0,1,38.252,33.6Z" transform="translate(-11.755)"/>
    <path id="Path_624" data-name="Path 624" d="M4.864,47.674A1.861,1.861,0,1,0,3,45.813,1.865,1.865,0,0,0,4.864,47.674Zm0-2.491a.63.63,0,1,1-.633.63A.632.632,0,0,1,4.864,45.183Z" transform="translate(0 -13.813)"/>
    <path id="Path_625" data-name="Path 625" d="M4.864,67.626A1.861,1.861,0,1,0,3,65.765,1.865,1.865,0,0,0,4.864,67.626Zm0-2.491a.63.63,0,1,1-.633.63A.632.632,0,0,1,4.864,65.135Z" transform="translate(0 -27.626)"/>
    <path id="Path_626" data-name="Path 626" d="M31.827,69.183a.615.615,0,1,0,0-1.231H20.592a.615.615,0,1,0,0,1.231Z" transform="translate(-11.753 -30.428)"/>
  </g>
</svg>
