<svg xmlns="http://www.w3.org/2000/svg" width="7.657" height="7.654" viewBox="0 0 7.657 7.654">
  <g id="_6617658_cloud_connection_information_network_technology_icon" data-name="6617658_cloud_connection_information_network_technology_icon" transform="translate(0)">
    <path id="Path_651" data-name="Path 651" d="M22.786,19.51a.765.765,0,0,0-.719.51H21.51V19H21v1.275a.255.255,0,0,0,.255.255h.811a.765.765,0,1,0,.719-1.02Z" transform="translate(-15.896 -14.409)" fill="#8a9aff"/>
    <path id="Path_652" data-name="Path 652" d="M2.275,5.081h5.1a1.275,1.275,0,0,0,.51-2.441,1.275,1.275,0,0,0-1.094-.62,1.061,1.061,0,0,0-.2.018,1.531,1.531,0,0,0-1.515-.39,2.036,2.036,0,0,0-3.5,1.1,1.272,1.272,0,0,0,.7,2.336Z" transform="translate(-0.998 -1)" fill="#8a9aff"/>
    <path id="Path_653" data-name="Path 653" d="M14.02,20.576V19h-.51v1.576a.765.765,0,1,0,.51,0Z" transform="translate(-9.937 -14.409)" fill="#8a9aff"/>
    <path id="Path_654" data-name="Path 654" d="M3.034,20.53H2.478a.765.765,0,1,0,0,.51h.811a.255.255,0,0,0,.255-.255V19h-.51Z" transform="translate(-0.992 -14.409)" fill="#8a9aff"/>
  </g>
</svg>
