<?xml version="1.0" encoding="utf-8"?>
<!-- Generator: Adobe Illustrator 25.1.0, SVG Export Plug-In . SVG Version: 6.00 Build 0)  -->
<svg version="1.1" id="Layer_1" xmlns="http://www.w3.org/2000/svg" xmlns:xlink="http://www.w3.org/1999/xlink" x="0px" y="0px"
	 viewBox="0 0 1427 688" style="enable-background:new 0 0 1427 688;" xml:space="preserve">
<style type="text/css">
	.st000{fill-rule:evenodd;clip-rule:evenodd;fill:#FFFFFF;}
	.st1{fill-rule:evenodd;clip-rule:evenodd;fill:#EAEAEA;}
	.st2{fill-rule:evenodd;clip-rule:evenodd;fill:#02cd79;}
	.st3{fill:#FFFFFF;}
</style>
<g>
	<path class="st000" d="M110.3,226.7l94.9,158.7l87.4-92.1l45.9,93.1L205.3,609L12.9,287.6C-28.1,217.1,71.6,162.1,110.3,226.7
		L110.3,226.7z M378.9,202.6L567.3,4L413.6,260.9L378.9,202.6z"/>
	<polygon class="st1" points="205.3,385.3 292.3,293.7 336.5,389.7 272.2,497 	"/>
	<path class="st2" d="M318.9,226.7l94.9,158.7L775.8,4l-362,605.1L221.2,287.7C180.5,217.1,280,162.1,318.9,226.7L318.9,226.7z"/>
	<path class="st3" d="M648.8,340.7v218.4H714V340.7H648.8z M1193.2,340.7l74.4,185l-61.9,155.4h66.6l136.3-340.4H1342L1301.5,445
		l-40.1-104.3H1193.2z M1171.6,348.4c-7.3-3.9-24.1-12.6-51.7-12.6c-60.9,0-113.1,47.3-113.1,111.7c0,61.3,41.3,116.3,110.3,116.3
		c28.1,0,46.3-7.7,58.4-13v-47.3c-9.6,5.3-22.7,11.9-41.6,11.9c-29.9,0-58.4-28-58.4-65.6c0-32,19.4-63.9,58.1-63.9
		c20.3,0,31.9,7.9,38.1,12.1v-49.7H1171.6z M773,340.7v218.4h65V415c6.3-11,17.6-30.9,39.1-30.9c25.1,0,25.1,24.7,25.1,52.6V559
		h65.3V429c0-18.4,0-38.1-7.9-54.1c-9.1-20.3-30.9-39.1-61.3-39.1c-37.6,0-53.7,24.7-60.4,34.9v-30h-65V340.7z M680.6,226
		c-23.1,0-35.7,18.9-35.7,35.7c0,20.7,16.3,36.9,36.6,36.9c20,0,36.3-16,36.3-36.3C717.8,243.1,702.8,226,680.6,226L680.6,226z"/>
</g>
</svg>
