<svg viewBox="0 0 348 169" fill="none" xmlns="http://www.w3.org/2000/svg">
<g id="Group">
<g id="whiteRight">
<path id="right" fill-rule="evenodd" clip-rule="evenodd" d="M26.4769 55.783L49.9356 95.0127L71.5404 72.2461L82.8866 95.2599L49.9603 150.285L2.40011 70.8371C-7.73486 53.4099 16.9104 39.8142 26.4769 55.783ZM92.8733 49.8256L139.445 0.732788L101.451 64.237L92.8733 49.8256Z" fill="white"/>
<path id="shadow" fill-rule="evenodd" clip-rule="evenodd" d="M49.9603 94.988L71.4662 72.345L82.3922 96.0757L66.4976 122.6L49.9603 94.988Z" fill="#EAEAEA"/>
</g>
<path id="yellowRight" fill-rule="evenodd" stroke="#f9bc28" clip-rule="evenodd" d="M78.0416 55.783L101.5 95.0127L190.985 0.732788L101.5 150.31L53.8907 70.8619C43.8299 53.4099 68.4257 39.8142 78.0416 55.783Z" />
<!-- <path class="path"  stroke="black" stroke-width="4" d="M66.039,133.545c0,0-21-57,18-67s49-4,65,8
  s30,41,53,27s66,4,58,32s-5,44,18,57s22,46,0,45s-54-40-68-16s-40,88-83,48s11-61-11-80s-79-7-70-41
  C46.039,146.545,53.039,128.545,66.039,133.545z"/>
  -->
<path id="incy" d="M159.591 83.9632V137.95H175.708V83.9632H159.591ZM294.164 83.9632L312.555 129.694L297.254 168.108H313.717L347.409 83.9632H330.946L320.935 109.746L311.022 83.9632H294.164ZM288.824 85.8665C287.02 84.9025 282.867 82.7519 276.044 82.7519C260.99 82.7519 248.087 94.4442 248.087 110.364C248.087 125.517 258.296 139.112 275.352 139.112C282.298 139.112 286.797 137.209 289.788 135.899V124.206C287.415 125.517 284.177 127.148 279.505 127.148C272.114 127.148 265.069 120.227 265.069 110.932C265.069 103.022 269.864 95.1363 279.431 95.1363C284.449 95.1363 287.316 97.0892 288.849 98.1274V85.8418H288.824V85.8665ZM190.293 83.9632V137.95H206.36V102.33C207.918 99.6106 210.711 94.6914 216.026 94.6914C222.23 94.6914 222.23 100.797 222.23 107.694V137.926H238.372V105.79C238.372 101.242 238.372 96.3723 236.419 92.4172C234.17 87.3992 228.781 82.7519 221.266 82.7519C211.972 82.7519 207.992 88.8576 206.336 91.379V83.9632H190.268V83.9632H190.293ZM167.452 55.6099C161.742 55.6099 158.627 60.2819 158.627 64.4348C158.627 69.5517 162.656 73.5563 167.674 73.5563C172.618 73.5563 176.647 69.6011 176.647 64.5831C176.647 59.837 172.94 55.6099 167.452 55.6099Z" fill="white"/>
</g>
</svg>
