<svg xmlns="http://www.w3.org/2000/svg" width="25.192" height="17.775" viewBox="0 0 25.192 17.775">
  <path id="_8200191_leftarrowl_left_arrow_direction_arrows_icon" data-name="8200191_leftarrowl_left_arrow_direction_arrows_icon" d="M49.894,101a.922.922,0,0,1,.658.272l6.91,6.825-6.9,6.99a.926.926,0,0,1-.669.284.944.944,0,0,1-.953-.936v-3.495a7.86,7.86,0,0,0-3.257-.607c-2.389,0-5.923.823-10,4.4,0,0,1.895-9.469,13.259-9.469v-3.308a.944.944,0,0,1,.942-.947.021.021,0,0,1,.017-.006m0-1.7h0a2.654,2.654,0,0,0-1.821.721,2.6,2.6,0,0,0-.834,1.935v1.674a16.26,16.26,0,0,0-5.929,1.589,13.652,13.652,0,0,0-4.6,3.716,14.031,14.031,0,0,0-2.706,5.469,1.7,1.7,0,0,0,1.333,2,1.722,1.722,0,0,0,1.458-.386c3.75-3.285,6.9-3.971,8.879-3.971a8.036,8.036,0,0,1,1.56.153v2.23a2.618,2.618,0,0,0,.834,1.929,2.649,2.649,0,0,0,1.821.715,2.622,2.622,0,0,0,1.878-.789l6.9-6.99a1.7,1.7,0,0,0-.017-2.406h0l-6.91-6.825A2.648,2.648,0,0,0,49.894,99.3Z" transform="translate(-33.974 -99.3)" fill="#fff"/>
</svg>
