<svg xmlns="http://www.w3.org/2000/svg" width="13.993" height="14.11" viewBox="0 0 13.993 14.11">
  <g id="_1737367_comment_description_note_problem_task_icon" data-name="1737367_comment_description_note_problem_task_icon" transform="translate(-62.56 -60.946)">
    <path id="Path_579" data-name="Path 579" d="M76.553,72.986V65.211A2.171,2.171,0,0,0,74.3,63.14h-.618v-.124a2.171,2.171,0,0,0-2.256-2.07H64.816a2.171,2.171,0,0,0-2.256,2.07v7.775a2.172,2.172,0,0,0,2.256,2.07h.618v.124a2.171,2.171,0,0,0,2.256,2.07H74.3A2.171,2.171,0,0,0,76.553,72.986Zm-3.089,1.393H67.689a1.459,1.459,0,0,1-1.518-1.393V65.211a1.459,1.459,0,0,1,1.518-1.393H74.3a1.459,1.459,0,0,1,1.518,1.393v7.775A1.459,1.459,0,0,1,74.3,74.378h-.833Z" fill="#8a9aff"/>
    <path id="Path_580" data-name="Path 580" d="M189.575,199.291h5.871a.294.294,0,0,0,0-.587h-5.871a.294.294,0,1,0,0,.587Z" transform="translate(-122.138 -132.775)" fill="#8a9aff"/>
    <path id="Path_581" data-name="Path 581" d="M223.046,254.134a.294.294,0,0,0,.294.294h5.5a.294.294,0,1,0,0-.587h-5.5A.294.294,0,0,0,223.046,254.134Z" transform="translate(-154.681 -185.917)" fill="#8a9aff"/>
    <path id="Path_582" data-name="Path 582" d="M195.025,309.28a.293.293,0,0,0-.294-.294h-5.157a.294.294,0,0,0,0,.587h5.157A.294.294,0,0,0,195.025,309.28Z" transform="translate(-122.138 -239.069)" fill="#8a9aff"/>
    <path id="Path_583" data-name="Path 583" d="M246.993,364.428a.294.294,0,0,0-.294-.293h-4.832a.294.294,0,1,0,0,.587H246.7A.294.294,0,0,0,246.993,364.428Z" transform="translate(-172.538 -292.222)" fill="#8a9aff"/>
  </g>
</svg>
