<svg xmlns="http://www.w3.org/2000/svg" width="10.201" height="10.286" viewBox="0 0 10.201 10.286">
  <g id="_1737367_comment_description_note_problem_task_icon" data-name="1737367_comment_description_note_problem_task_icon" transform="translate(-62.56 -60.946)">
    <path id="Path_579" data-name="Path 579" d="M72.761,69.723V64.055a1.583,1.583,0,0,0-1.644-1.509h-.451v-.091a1.583,1.583,0,0,0-1.644-1.509H64.2a1.583,1.583,0,0,0-1.644,1.509v5.668A1.583,1.583,0,0,0,64.2,69.632h.45v.091A1.583,1.583,0,0,0,66.3,71.232h4.817A1.583,1.583,0,0,0,72.761,69.723Zm-2.252,1.015H66.3a1.064,1.064,0,0,1-1.106-1.015V64.055A1.064,1.064,0,0,1,66.3,63.04h4.817a1.064,1.064,0,0,1,1.106,1.015v5.668a1.064,1.064,0,0,1-1.106,1.015h-.607Z" fill="#8a9aff"/>
    <path id="Path_580" data-name="Path 580" d="M189.495,199.132h4.28a.214.214,0,0,0,0-.428h-4.28a.214.214,0,1,0,0,.428Z" transform="translate(-123.38 -134.126)" fill="#8a9aff"/>
    <path id="Path_581" data-name="Path 581" d="M223.046,254.054a.214.214,0,0,0,.214.214h4.011a.214.214,0,1,0,0-.428H223.26A.214.214,0,0,0,223.046,254.054Z" transform="translate(-156.254 -187.808)" fill="#8a9aff"/>
    <path id="Path_582" data-name="Path 582" d="M193.468,309.2a.214.214,0,0,0-.214-.214h-3.759a.214.214,0,0,0,0,.428h3.759A.214.214,0,0,0,193.468,309.2Z" transform="translate(-123.38 -241.5)" fill="#8a9aff"/>
    <path id="Path_583" data-name="Path 583" d="M245.524,364.348a.214.214,0,0,0-.214-.214h-3.523a.214.214,0,1,0,0,.428h3.523A.214.214,0,0,0,245.524,364.348Z" transform="translate(-174.293 -295.194)" fill="#8a9aff"/>
  </g>
</svg>
